<mxfile host="app.diagrams.net" modified="2022-09-15T03:36:06.703Z" agent="5.0 (Windows NT 10.0; Win64; x64) AppleWebKit/537.36 (KHTML, like Gecko) Chrome/105.0.0.0 Safari/537.36" etag="PBzYXea6Plrmb33Kzp2g" version="20.3.0" type="github">
  <diagram id="95tO2vKOqmV1QOW_Tu63" name="페이지-1">
    <mxGraphModel dx="2012" dy="655" grid="1" gridSize="10" guides="1" tooltips="1" connect="1" arrows="1" fold="1" page="1" pageScale="1" pageWidth="827" pageHeight="1169" math="0" shadow="0">
      <root>
        <mxCell id="0" />
        <mxCell id="1" parent="0" />
        <mxCell id="7u8ZQuROqCGrBiuAzIs9-1" value="" style="ellipse;whiteSpace=wrap;html=1;" vertex="1" parent="1">
          <mxGeometry x="-110" y="40" width="120" height="60" as="geometry" />
        </mxCell>
        <mxCell id="7u8ZQuROqCGrBiuAzIs9-4" style="edgeStyle=orthogonalEdgeStyle;rounded=0;orthogonalLoop=1;jettySize=auto;html=1;exitX=0.5;exitY=1;exitDx=0;exitDy=0;entryX=0.5;entryY=0;entryDx=0;entryDy=0;" edge="1" parent="1" source="7u8ZQuROqCGrBiuAzIs9-2" target="7u8ZQuROqCGrBiuAzIs9-3">
          <mxGeometry relative="1" as="geometry" />
        </mxCell>
        <mxCell id="7u8ZQuROqCGrBiuAzIs9-2" value="창 오픈" style="ellipse;whiteSpace=wrap;html=1;" vertex="1" parent="1">
          <mxGeometry x="120" y="50" width="180" height="40" as="geometry" />
        </mxCell>
        <mxCell id="7u8ZQuROqCGrBiuAzIs9-9" value="" style="edgeStyle=orthogonalEdgeStyle;rounded=0;orthogonalLoop=1;jettySize=auto;html=1;" edge="1" parent="1" source="7u8ZQuROqCGrBiuAzIs9-3" target="7u8ZQuROqCGrBiuAzIs9-8">
          <mxGeometry relative="1" as="geometry" />
        </mxCell>
        <mxCell id="7u8ZQuROqCGrBiuAzIs9-3" value="아이디 입력" style="rounded=0;whiteSpace=wrap;html=1;" vertex="1" parent="1">
          <mxGeometry x="120" y="120" width="180" height="40" as="geometry" />
        </mxCell>
        <mxCell id="7u8ZQuROqCGrBiuAzIs9-11" value="&amp;nbsp; &amp;nbsp; true" style="edgeStyle=orthogonalEdgeStyle;rounded=0;orthogonalLoop=1;jettySize=auto;html=1;" edge="1" parent="1" source="7u8ZQuROqCGrBiuAzIs9-8" target="7u8ZQuROqCGrBiuAzIs9-10">
          <mxGeometry x="-0.2" y="20" relative="1" as="geometry">
            <mxPoint as="offset" />
          </mxGeometry>
        </mxCell>
        <mxCell id="7u8ZQuROqCGrBiuAzIs9-12" value="false" style="edgeStyle=orthogonalEdgeStyle;rounded=0;orthogonalLoop=1;jettySize=auto;html=1;entryX=1;entryY=0.5;entryDx=0;entryDy=0;" edge="1" parent="1" source="7u8ZQuROqCGrBiuAzIs9-8" target="7u8ZQuROqCGrBiuAzIs9-3">
          <mxGeometry relative="1" as="geometry">
            <mxPoint x="390" y="150" as="targetPoint" />
            <Array as="points">
              <mxPoint x="400" y="260" />
              <mxPoint x="400" y="140" />
            </Array>
          </mxGeometry>
        </mxCell>
        <mxCell id="7u8ZQuROqCGrBiuAzIs9-8" value="아이디가 알파벳소문자로&lt;br&gt;이루어졌는지?" style="rhombus;whiteSpace=wrap;html=1;rounded=0;" vertex="1" parent="1">
          <mxGeometry x="110" y="220" width="200" height="80" as="geometry" />
        </mxCell>
        <mxCell id="7u8ZQuROqCGrBiuAzIs9-10" value="버튼 보이게 처리" style="whiteSpace=wrap;html=1;rounded=0;" vertex="1" parent="1">
          <mxGeometry x="110" y="350" width="200" height="40" as="geometry" />
        </mxCell>
      </root>
    </mxGraphModel>
  </diagram>
</mxfile>
